<?xml version="1.0" ?><!DOCTYPE svg  PUBLIC '-//W3C//DTD SVG 1.1//EN'  'http://www.w3.org/Graphics/SVG/1.1/DTD/svg11.dtd'><svg height="512px" style="enable-background:new 0 0 512 512;" version="1.1" viewBox="0 0 512 512" width="512px" xml:space="preserve" xmlns="http://www.w3.org/2000/svg" xmlns:xlink="http://www.w3.org/1999/xlink"><g id="social__x2C__media__x2C__social_media__x2C___html_5__x2C_"><polygon points="470.404,368.68 495.674,370.415 475.478,371.612 481.009,373.302 463.749,373.923    498.064,377.55 482.043,378.024 465.777,378.046 489.168,381.933 492.698,384.034 476.396,383.545 463.816,383.164    485.613,388.084 462.437,385.605 483.945,391.071 488,393.562 468.233,390.9 461.55,390.751 478.636,396.382 477.121,397.588    490.005,402.8 489.618,404.472 476.04,402.084 468.533,401.265 480.842,406.974 481.314,408.873 460.274,402.798 475.511,410.137    490.555,417.896 460.563,407.275 453.361,405.637 459.867,409.952 454.035,408.732 473.425,419.587 471.741,420.528    472.691,422.802 453.842,414.496 454.012,416.101 453.067,417.107 475.685,432.027 476.601,434.588 450.791,420.399    446.06,418.914 446.829,420.947 474.972,441.88 468.57,439.511 450.914,428.709 450.183,429.902 459.934,439.194 449.382,432.843    467.467,449.426 463.419,448.307 446.61,436.044 442.465,434.256 463.634,455.373 464.562,458.648 439.828,437.345    447.563,446.906 438.352,439.727 438.076,441.411 441.759,447.373 448.799,457.324 438.948,448.636 445.874,458.937    427.652,439.691 432.214,447.287 427.932,444.105 446.911,470.93 438.698,462.899 425.87,447.976 434.023,461.849 421.762,446.711    430.749,462.553 439.262,478.556 426.934,462.266 432.455,474.236 435.195,482.181 419.399,458.202 429.753,479.806    413.844,453.796 417.926,464.544 410.275,452.545 421.576,478.837 408.479,454.79 406.895,454.415 408.926,462.325    411.803,472.804 404.843,459.631 408.692,473.307 411.568,485.469 409.7,485.311 406.861,482.195 405.606,483.638 399.697,470.132    398.879,472.478 395.245,464.966 395.138,469.888 399.068,491.471 398.005,494.556 393.301,481.455 391.281,479.48    391.476,488.675 389.855,489.089 386.02,476.05 382.482,462.438 382.774,474.234 379.624,460.436 379.225,468.521 379.074,481.504    377.17,477.166 375.454,473.809 374.744,487.521 372.805,479.718 371.34,481.74 369.977,494.601 368.246,468.189 366.719,496.037    365.191,466.896 363.664,470.429 362.137,469.478 360.609,464.859 359.082,469.56 357.555,476.483 356.027,462.687    354.499,500.417 352.971,490.856 351.442,476.99 349.914,481.47 348.385,474.649 346.854,488.016 345.325,480.766 343.797,465.492    342.268,474.28 340.739,472.444 339.211,486.369 337.683,468.359 336.155,463.181 334.627,475.367 333.1,473.266 331.571,481.259    330.044,496.387 328.516,482.283 326.987,475.244 325.459,463.549 323.931,491.983 322.402,497.497 320.874,472.358    319.345,471.556 317.815,467.158 316.287,479.987 314.759,497.628 313.231,476.814 311.705,484.632 310.179,471.85    308.653,494.761 307.128,485.027 305.604,495.719 304.079,500.566 302.555,483.137 301.03,466.959 299.506,486.297 297.982,496.35    296.458,486.313 294.934,472.552 293.409,471.913 291.884,485.829 290.359,500.284 288.833,479.473 287.308,468.266    285.78,463.296 284.253,477.768 282.725,467.39 281.196,463.35 279.666,480.795 278.135,484.753 276.605,469.184 275.076,477.474    273.547,478.276 272.02,485.563 270.492,490.355 268.965,497.428 267.438,475.097 265.911,472.684 264.385,487.917    262.858,491.036 261.332,484.071 259.805,477.607 258.277,499.953 256.75,488.361 255.221,489.387 253.692,498.948    252.162,477.154 250.63,495.781 249.099,489.559 247.569,484.062 246.04,467.548 244.511,469.223 242.982,466.745 241.454,480.438    239.926,465.684 238.398,472.779 236.869,483.622 235.34,493.116 233.811,497.52 232.28,488.969 230.748,489.088 229.216,484.343    227.686,492.262 226.156,486.881 224.626,474.054 223.097,491.775 221.567,472.412 220.038,494.469 218.507,478.563    216.976,461.427 215.444,493.264 213.912,481.23 212.381,491.468 210.851,491.64 209.321,463.098 207.791,477.534 206.259,463.969    204.727,484.32 203.195,475.346 201.663,496.822 200.132,478.198 198.602,499.688 197.07,463.932 195.537,486.965 194.005,492.157    192.479,490.792 190.95,493.098 189.419,477.008 187.886,462.212 186.355,474.047 184.826,492.903 183.297,465.558    181.769,464.435 180.239,492.032 178.707,471.699 177.173,497.048 175.642,496.009 174.111,464.794 172.58,496.798    171.046,472.158 169.513,497.974 167.98,485.938 166.447,474.581 164.912,498.625 163.379,480.532 161.844,499.718 160.31,461.348    158.774,488.68 157.243,492.214 155.711,475.394 154.175,496.074 152.641,489.391 151.105,474.077 149.568,495.112    148.032,486.399 146.493,492.137 144.952,500.276 143.41,471.544 141.617,499.054 140.167,487.44 138.598,486.092 137.787,471.397    136.753,465.83 134.965,471.34 134.157,464.929 131.036,481.42 127.609,496.707 126.75,489.947 127.242,475.373 126.092,473.263    121.3,491.887 124.001,468.786 120.299,479.815 118.269,481.816 116.654,481.76 118.019,469.768 115.066,475.345 113.088,476.816    113.903,468.608 106.438,487.922 114.145,458.67 112.494,459.482 104.375,478.437 104.765,472.809 99.544,482.105 98.649,479.881    96.207,481.46 99.817,468.973 93.281,479.829 96.602,468.795 89.553,479.88 94.856,465.542 90.348,471.021 94.18,460.537    89.116,466.742 82.112,475.909 80.911,474.631 93.308,451.022 78.077,472.816 73.011,477.562 87.536,452.564 76.06,466.854    76.229,463.799 80.137,455.717 75.969,458.836 80.476,450.46 69.145,462.504 60.548,470.468 74.571,450.929 76.835,446.041    65.026,457.299 61.846,458.395 62.231,455.558 65.95,449.334 51.455,461.869 63.933,447.033 76.723,432.619 66.158,440.78    57.547,446.662 71.896,431.829 56.116,443.715 53.117,444.179 62.938,434.098 68.15,428.168 66.969,427.41 53.021,436.22    43.631,441.153 37.674,443.313 47.966,434.088 44.335,434.614 44.723,432.423 53.822,424.806 40.096,431.485 41.9,428.504    61.073,415.661 61.964,413.686 39.462,424.336 27.955,428.513 43.424,418.742 41.467,417.994 59.275,407.945 41.292,414.681    55.585,406.796 57.136,404.722 24.564,416.476 50.667,404.5 50.52,403.108 48.105,402.534 36.067,405.173 53.441,397.899    31.221,403.434 21.173,404.728 34.42,399.208 53.102,392.658 44.465,393.507 39.386,393.275 34.283,392.91 37.175,390.753    47.823,387.19 27.198,389.525 27.919,387.773 40.292,384.3 47.768,381.843 12.005,384.896 39.631,380.071 42.806,378.341    39.536,377.223 46.524,375.323 41.585,374.257 20.099,373.727 24.152,371.939 24.915,370.297 44.896,368.68 13.552,367.153    15.17,365.627 11.506,364.102 28.436,362.575 23.705,361.049 43.079,359.522 38.908,357.996 22.162,356.47 29.977,354.942    27.212,353.416 26.071,351.889 44.171,350.36 20.585,348.833 42.694,347.304 50.746,345.776 49.94,344.248 16.282,342.721    11.756,341.193 30.457,339.666 32.86,338.14 11.931,336.612 28.146,335.086 45.612,333.559 34.696,332.032 19.566,330.506    23.329,328.979 38.456,327.452 44.733,325.925 16.696,324.398 23.25,322.872 41.643,321.345 26.323,319.816 23.579,318.288    24.377,316.761 30.167,315.234 49.625,313.708 33.235,312.183 17.798,310.657 30.392,309.133 49.246,307.609 17.946,306.085    30.118,304.562 19.959,303.038 25.57,301.516 15.999,299.992 29.896,298.47 12.29,296.946 48.505,295.423 42.389,293.899    48.383,292.376 19.447,290.853 42.394,289.327 27.278,287.803 43.307,286.277 47.12,284.751 30.858,283.224 45.934,281.695    14.455,280.167 15.45,278.637 20.306,277.108 43.899,275.58 19.798,274.053 39.484,272.525 40.869,271 41.143,269.474    40.92,267.948 42.97,266.423 43.499,264.897 18.957,263.372 26.485,261.847 19.274,260.32 12.002,258.794 33.325,257.268    22.508,255.74 33.154,254.211 28.735,252.682 38.532,251.152 38.171,249.622 37.138,248.093 12.719,246.565 44.757,245.037    35.935,243.51 36.266,241.983 28.945,240.456 13.403,238.929 14.695,237.401 34.946,235.874 47.571,234.345 33.904,232.815    14.747,231.285 19.655,229.754 11.821,228.225 25.771,226.696 13.274,225.167 11.268,223.639 13.286,222.111 29.632,220.582    19.166,219.053 40.727,217.523 33.408,215.991 50.98,214.461 15.847,212.931 41.835,211.402 49.876,209.873 40.436,208.344    20.934,206.813 34.902,205.283 46.702,203.751 14.226,202.221 31.417,200.691 35.006,199.161 46.717,197.631 18.65,196.1    43.153,194.568 18.601,193.043 25.236,191.516 22.287,189.986 33.396,188.454 22.247,186.924 23.652,185.396 39.675,183.869    15.131,182.341 27.197,180.813 41.687,179.282 50.237,177.749 11.951,176.219 23.588,174.689 27.083,173.159 16.185,171.626    22.229,170.094 27.997,168.563 21.452,167.031 43.161,165.497 21.344,163.965 48.101,162.431 21.058,160.898 27.357,159.363    30.698,157.833 48.204,156.303 11.257,154.768 32.879,153.235 22.279,151.7 29.363,150.164 13.375,148.629 23.085,147.091    47.527,145.551 37.885,144.011 42.755,142.633 29.707,140.905 39.328,139.736 16.112,137.06 16.961,135.376 23.599,134.177    35.775,133.683 28.625,131.421 31.904,130.235 49.834,131.126 34.08,127.457 18.464,123.361 46.053,126.521 14.069,118.995    24.493,119.305 25.932,117.92 31.543,117.556 36.401,117.155 50.385,119.308 26.338,111.206 27.409,109.792 50.259,115.144    50.604,113.855 35.831,107.422 39.295,107.007 35.213,103.882 39.613,103.895 45.059,104.452 24.309,94.183 30.956,95.16    26.604,91.344 30.961,91.46 42.836,95.337 28.612,86.484 34.556,87.594 31.657,84.129 55.489,95.385 60.709,96.792 57.455,93.357    42.687,82.754 55.681,89.028 54.343,86.477 42.137,76.583 62.196,88.363 47.972,76.644 68.47,89.602 43.799,69.529 44.08,67.596    42.013,63.779 49.384,67.512 53.622,68.903 50.335,63.96 58.362,68.833 45.947,55.434 74.566,79.744 61.754,65.645 70.542,72.147    54.652,54.031 51.878,48.638 66.125,61.27 67.127,60.073 73.862,65.353 63.907,51.581 65.395,50.765 78.833,64.647 80.248,64.183    65.422,42.615 68.801,44.228 81.198,58.396 84.986,61.253 83.464,56.589 84.627,55.721 80.115,46.077 85.638,51.884 75.731,32.742    88.835,51.456 78.75,30.852 89.415,46.445 95.883,55.288 86.065,33.356 95.594,48.581 87.683,28.885 91.376,32.674 90.936,27.599    93.31,28.688 97.339,33.872 94.49,22.401 103.845,41.667 101.749,31.693 102.354,28.5 109.558,44.517 102.899,19.328    112.613,44.688 115.839,50.64 118.115,53.863 116.364,42.221 113.034,22.957 114.182,20.385 118.658,32.606 124.487,53.119    118.894,17.286 124.441,38.414 126.912,44.425 124.121,16.526 130.544,50.708 128.734,25.232 133.232,51.555 132.705,32.49    135.126,43.425 136.145,37.985 137.28,32.053 139.357,45.438 139.862,13.941 141.751,22.547 143.41,20.785 144.938,12.751    146.465,39.674 147.992,46.591 149.519,16.12 151.046,38.819 152.574,28.043 154.102,24.897 155.629,41.75 157.157,22.927    158.686,21.178 160.214,38.422 161.743,33.319 163.272,35.164 164.801,51.354 166.331,50.681 167.86,37.685 169.388,14.428    170.917,26.412 172.445,45.8 173.973,34.104 175.501,42.403 177.029,23.897 178.557,31.814 180.084,26.003 181.612,27.11    183.14,32.615 184.668,12.945 186.197,32.017 187.726,49.853 189.253,40.355 190.782,14.616 192.312,25.089 193.841,49.243    195.369,26.553 196.897,24.954 198.424,48.367 199.951,16.102 201.477,38.603 203.002,16.513 204.528,36.641 206.053,12.975    207.577,30.612 209.102,32.011 210.626,12.079 212.15,31.982 213.674,43.31 215.198,17.757 216.723,23.016 218.247,44.812    219.772,43.892 221.297,28.615 222.823,14.531 224.349,18.534 225.875,44.531 227.403,48.149 228.931,39.578 230.46,51.071    231.99,18.302 233.521,47.797 235.051,39.405 236.58,39.977 238.109,31.299 239.637,48.75 241.164,42.032 242.691,38.366    244.218,29.651 245.745,50.334 247.271,47.52 248.797,31.676 250.324,20.223 251.851,28.608 253.378,48.779 254.906,49.06    256.435,43.742 257.965,28.97 259.495,16.686 261.026,23.115 262.558,39.079 264.087,36.474 265.616,18.247 267.146,31.746    268.674,37.47 270.202,47.641 271.73,16.546 273.259,15.863 274.787,25.399 276.316,27.515 277.846,41.251 279.377,46.709    280.908,34.909 282.439,15.681 283.971,38.416 285.5,36.54 287.03,40.075 288.56,25.042 290.089,48.322 291.618,46.401    293.148,18.412 294.68,37.056 296.213,20.128 297.744,44.79 299.275,35.944 300.806,17.224 302.336,32.057 303.866,30.9    305.397,34.701 306.929,14.565 308.462,25.881 309.993,16.247 311.523,21.385 313.055,28.808 314.586,24.461 316.119,18.388    317.651,15.961 319.178,29.079 320.706,21.077 322.236,40.509 323.771,18.917 325.301,47.832 326.83,29.297 328.358,30.618    329.888,35.94 331.417,13.74 332.949,42.167 334.483,34.099 336.015,18.781 337.545,47.352 339.076,29.419 340.61,13.377    342.144,41.029 343.676,43.197 345.209,41.498 346.744,28.438 348.277,47.551 349.813,22.158 351.347,29.124 352.882,11.961    354.413,16.368 355.944,37.811 357.48,47.155 359.015,32.814 360.551,31.706 362.089,40.494 363.624,51.494 365.163,41.644    366.704,26.939 368.246,42.881 369.699,37.809 371.298,32.39 373.477,16.35 374.433,30.935 374.635,50.95 378.943,13.569    380.67,14.237 379.299,43.458 384.359,13.5 382.3,41.916 387.061,19.668 387.948,24.885 390.238,21.467 389.353,35.077    392.589,26.923 392.861,33.258 397.782,19.096 391.323,52.197 396.105,39.185 394.475,50.532 394.5,55.137 399.232,44.122    400.309,45.422 398.086,56.37 404.205,42.911 408.623,35.21 402.081,56.538 406.724,48.427 409.219,46.113 420.824,23.057    412.371,46.167 419.625,34.123 420.077,36.992 421.597,37.584 421.988,40.36 426.025,36.215 417.991,54.148 420.695,52.255    421.593,53.574 418.339,61.689 434.121,39.013 425.169,55.968 432.502,47.544 436.043,45.184 438.876,44.008 433.529,54.207    445.931,40.158 440.975,49.5 435.627,58.884 441.449,54.081 435.466,63.702 449.863,49.151 437.872,65.298 442.029,62.86    441.264,65.875 445.824,63.231 455.631,55.464 434.702,78.511 446.201,69.233 441.688,75.476 437.074,81.524 450.456,71.377    439.311,82.956 443.389,81.209 441.021,84.867 460.977,70.681 450.179,81.044 459.673,75.692 464.083,74.408 466.248,74.858    469.027,74.93 457.735,84.478 452.111,89.871 469.467,80.568 477.063,77.858 453.446,93.826 452.235,96.082 481.637,81.262    481.87,83.154 464.991,93.912 477.018,89.528 481.007,89.454 465.466,98.613 473.134,96.757 481.375,94.885 472.234,100.541    487.391,96.083 484.178,99.218 456.873,111.172 462.84,110.409 460.438,112.665 481.305,107.286 460.932,115.296 461.991,116.361    476.483,113.692 493.786,110.702 460.352,120.903 492.924,114.537 485.532,117.977 481.676,120.449 473.525,123.628    468.708,125.975 480.147,125.505 469.457,128.68 498.011,126.188 464.825,132.054 460.617,133.851 466.729,134.55 474.681,135.263    499.5,135.041 481.991,137.79 497.499,138.725 465.413,141.344 462.711,142.73 487.507,144.011 500.118,145.537 477.878,147.063    493.317,148.589 488.336,150.115 473.53,151.642 463.251,153.168 468.946,154.694 473.481,156.221 465.676,157.748    481.614,159.275 492.213,160.802 489.029,162.33 500.339,163.858 485.91,165.386 482,166.915 469.172,168.442 478.955,169.97    475.237,171.497 474.912,173.024 499.658,174.551 473.341,176.078 468.79,177.604 463.342,179.131 495.057,180.658 485.67,182.185    491.771,183.711 496.431,185.239 491.111,186.766 491.976,188.293 464.487,189.82 470.166,191.348 493.414,192.876    485.423,194.404 465.92,195.932 492.893,197.458 483.659,198.984 495.586,200.51 462.983,202.035 492.425,203.559 484.729,205.083    499.993,206.607 496.736,208.13 471.082,209.653 485.856,211.177 484.202,212.7 496.808,214.223 474.854,215.746 489.107,217.269    486.614,218.792 475.263,220.316 482.957,221.84 478.454,223.364 484.329,224.889 471.185,226.415 484.021,227.941    492.668,229.468 476.252,230.996 477.196,232.525 465.189,234.055 483.296,235.583 499.72,237.112 479.198,238.639    500.339,240.166 498.961,241.692 496.892,243.218 480.547,244.744 463.695,246.269 477.238,247.794 487.159,249.32    481.946,250.845 475.103,252.371 465.366,253.897 481.814,255.424 488.288,256.952 483.163,258.48 471.039,260.009    477.244,261.539 473.694,263.069 492.53,264.599 484.509,266.127 482.881,267.654 496.017,269.182 481.589,270.709    473.282,272.235 480.173,273.763 492.032,275.29 476.779,276.818 490.651,278.347 468.814,279.876 464.604,281.407    469.804,282.938 499.273,284.467 496.511,285.996 473.03,287.524 483.986,289.053 491.112,290.58 468.478,292.109 497.859,293.639    476.009,295.169 464.941,296.7 472.986,298.23 471.399,299.76 499.299,301.289 482.67,302.818 499.156,304.348 465.185,305.878    495.304,307.408 485.76,308.939 483.266,310.47 485.646,312 498.902,313.53 492.965,315.061 479.838,316.592 469.225,318.123    464.216,319.648 500.642,321.176 493.732,322.705 488.219,324.237 497.054,325.767 466.904,327.295 489.501,328.822    478.532,330.35 500.242,331.878 460.845,333.409 474.272,334.941 460.679,336.472 498.113,338.002 478.081,339.531    490.388,341.064 485.212,342.597 486.365,344.128 483.89,345.66 494.058,347.193 473.853,348.726 473.574,350.26 465.162,351.793    476.285,353.327 467.593,354.857 480.596,356.388 492.449,357.923 482.313,359.455 492.98,360.99 484.097,362.526 493.312,364.062    485.814,365.599 479.861,364.463  " style="fill:#FF651E;"/><g><polygon points="184.817,141.195 196.82,141.195 196.82,153.902     209.939,153.902 209.939,115.927 196.82,115.927 196.82,128.47 184.817,128.47 184.817,115.927 171.698,115.927 171.698,153.902     184.817,153.902   " style="fill:#FFFFFF;enable-background:new    ;"/><polygon points="227.193,153.902 240.313,153.902 240.313,128.543     251.858,128.543 251.858,115.927 215.647,115.927 215.647,128.543 227.193,128.543   " style="fill:#FFFFFF;enable-background:new    ;"/><polygon points="270.438,135.088 279.478,148.6 279.697,148.6 288.718,135.088     288.718,153.902 301.8,153.902 301.8,115.927 288.114,115.927 279.697,129.292 271.29,115.927 257.604,115.927 257.604,153.902     270.438,153.902   " style="fill:#FFFFFF;enable-background:new    ;"/><polygon points="339.887,141.359 321.434,141.359 321.434,115.927     308.314,115.927 308.314,153.902 339.887,153.902   " style="fill:#FFFFFF;enable-background:new    ;"/><path d="M152.778,170.577l18.773,203.57l84.24,22.616l84.296-22.599    l18.791-203.588H152.778z M318.167,237.149h-62.339H219.39l2.36,25.562h34.078h59.997l-7.072,76.678l-52.925,14.188h-0.037    l-52.888-14.188l-3.687-40.097h25.918l1.903,20.789l28.754,7.533l0.037-0.019l0,0l28.792-7.515l3-32.381h-31.792l0,0h-57.691    l-6.953-75.509h64.644h64.662L318.167,237.149z" style="fill:#FFFFFF;enable-background:new    ;"/></g></g><g id="Layer_1"/></svg>