<svg height="511pt" viewBox="-33 0 511 511.99915" width="511pt" xmlns="http://www.w3.org/2000/svg"><path d="m349.617188 504.496094c-36.929688 0-66.863282-29.9375-66.863282-66.863282v-32.648437c0-6.070313 4.917969-10.988281 10.984375-10.988281h108.019531c5.335938 0 9.914063 3.835937 10.824219 9.089844 1.816407 10.46875 3.058594 20.226562 3.730469 29.722656 2.726562 38.730468-27.867188 71.6875-66.695312 71.6875zm0 0" fill="#423e38"/><path d="m416.3125 432.808594c-.667969-9.496094-1.910156-19.257813-3.726562-29.722656-.914063-5.257813-5.492188-9.09375-10.828126-9.09375h-29.996093c5.332031 0 9.914062 3.835937 10.824219 9.09375 1.816406 10.46875 3.058593 20.226562 3.726562 29.722656 2.367188 33.578125-20.3125 62.8125-51.6875 70 43.839844 10.042968 84.84375-25.15625 81.6875-70zm0 0" fill="#302e29"/><path d="m96.507812 504.496094c36.929688 0 66.863282-29.9375 66.863282-66.863282v-32.648437c0-6.070313-4.917969-10.988281-10.988282-10.988281h-108.015624c-5.335938 0-9.914063 3.835937-10.828126 9.089844-1.816406 10.46875-3.054687 20.226562-3.726562 29.722656-2.726562 38.730468 27.867188 71.6875 66.695312 71.6875zm0 0" fill="#423e38"/><path d="m152.382812 393.992188h-29.144531c6.070313 0 10.988281 4.921874 10.988281 10.988281v32.652343c0 31.929688-22.386718 58.613282-52.316406 65.257813 4.695313 1.042969 9.574219 1.605469 14.597656 1.605469 36.925782 0 66.863282-29.9375 66.863282-66.863282v-32.652343c0-6.066407-4.917969-10.988281-10.988282-10.988281zm0 0" fill="#302e29"/><path d="m436.941406 177.445312c-7.480468-52.992187-23.15625-98.78125-48.070312-136.464843-36.496094-55.203125-120.71875-38.699219-135.238282 24.101562-10.816406 46.777344-10.175781 91.773438-.109374 134.855469 6.609374 28.292969 25.304687 63.171875 24.941406 129.933594-.113282 20.203125 16.054687 36.710937 36.257812 36.710937h65.347656c18.9375 0 34.722657-14.503906 36.324219-33.371093 5.710938-67.335938 26.890625-100.410157 20.546875-155.765626zm0 0" fill="#2c5771"/><path d="m436.941406 177.445312c-7.480468-52.992187-23.15625-98.78125-48.070312-136.464843-16.9375-25.621094-47.695313-38.027344-77.414063-31.976563 19.222657 3.917969 36.378907 15.28125 47.417969 31.976563 24.910156 37.683593 40.589844 83.472656 48.066406 136.464843 6.34375 55.355469-14.832031 88.429688-20.546875 155.765626-1.601562 18.867187-17.386719 33.371093-36.320312 33.371093h29.996093c18.9375 0 34.722657-14.503906 36.324219-33.371093 5.710938-67.335938 26.890625-100.410157 20.546875-155.765626zm0 0" fill="#24475c"/><path d="m192.492188 65.082031c-14.726563-63.695312-99.257813-78.527343-135.242188-24.101562-26.320312 39.816406-41.171875 87.59375-48.066406 136.464843-6.34375 55.355469 14.835937 88.429688 20.546875 155.765626 1.601562 18.867187 17.386719 33.371093 36.324219 33.371093h65.347656c20.203125 0 36.367187-16.507812 36.257812-36.710937-.199218-36.191406 5.640625-70.824219 17.203125-103.976563 17.007813-48.773437 20.761719-103.988281 7.628907-160.8125zm0 0" fill="#2c5771"/><path d="m192.492188 65.082031c-10.03125-43.382812-52.441407-64.085937-89.839844-55.691406 26.160156 5.792969 49.332031 25.105469 56.402344 55.691406 13.132812 56.824219 9.378906 112.039063-7.628907 160.8125-11.5625 33.15625-17.402343 67.785157-17.203125 103.976563.109375 20.203125-16.054687 36.710937-36.257812 36.710937h33.4375c20.203125 0 36.367187-16.507812 36.257812-36.710937-.199218-36.191406 5.640625-70.824219 17.203125-103.976563 17.007813-48.773437 20.761719-103.988281 7.628907-160.8125zm0 0" fill="#24475c"/><path d="m419.976562 401.804688c-1.539062-8.871094-9.203124-15.3125-18.21875-15.3125h-108.019531c-10.191406 0-18.484375 8.296874-18.484375 18.488281v32.652343c0 67.242188 82.890625 99.890626 128.722656 50.71875 14.042969-15.066406 21.265626-35.503906 19.816407-56.070312-.675781-9.585938-1.925781-19.554688-3.816407-30.476562zm-26.972656 76.320312c-36.589844 39.257812-102.75 13.171875-102.75-40.492188v-32.648437c0-1.925781 1.5625-3.488281 3.484375-3.488281h108.019531c1.703126 0 3.148438 1.207031 3.4375 2.875 1.808594 10.414062 2.996094 19.886718 3.636719 28.964844 1.171875 16.671874-4.449219 32.578124-15.828125 44.789062zm0 0"/><path d="m152.382812 386.492188h-108.015624c-9.019532 0-16.679688 6.441406-18.21875 15.3125-1.894532 10.917968-3.140626 20.886718-3.816407 30.476562-2.980469 42.324219 30.246094 79.714844 74.175781 79.714844 41.003907 0 74.363282-33.359375 74.363282-74.363282v-32.652343c0-10.191407-8.292969-18.488281-18.488282-18.488281zm3.488282 51.140624c0 32.734376-26.628906 59.363282-59.363282 59.363282-34.460937 0-61.640624-29.15625-59.214843-63.660156.640625-9.078126 1.828125-18.554688 3.636719-28.96875.289062-1.664063 1.734374-2.875 3.4375-2.875h108.019531c1.921875 0 3.488281 1.566406 3.488281 3.488281v32.652343zm0 0"/><path d="m444.367188 176.394531c-7.746094-54.894531-24.3125-101.847656-49.238282-139.550781-26.851562-40.613281-82.363281-48.648438-119.796875-19.121094-23.164062 18.269532-28.667969 39.910156-32.890625 65.222656-.679687 4.085938 2.078125 7.953126 6.164063 8.632813 4.082031.675781 7.949219-2.078125 8.632812-6.164063 1.042969-6.261718 2.289063-12.53125 3.703125-18.640624 13.28125-57.453126 89.367188-70.519532 121.675782-21.65625 23.671874 35.808593 39.445312 80.648437 46.882812 133.277343 6.097656 53.46875-14.84375 86.558594-20.578125 154.183594-1.261719 14.863281-13.933594 26.503906-28.851563 26.503906h-65.347656c-16.023437 0-28.847656-13.082031-28.757812-29.167969.371094-68.214843-18.609375-103.730468-25.136719-131.679687-6.585937-28.175781-8.890625-56.917969-6.859375-85.425781.292969-4.132813-2.816406-7.722656-6.949219-8.015625-4.125-.304688-7.71875 2.816406-8.015625 6.949219-2.136718 30.015624.289063 60.261718 7.214844 89.902343 6.679688 28.589844 25.101562 62.933594 24.746094 128.1875-.136719 24.464844 19.464844 44.25 43.757812 44.25h65.347656c22.644532 0 41.882813-17.671875 43.796876-40.238281 5.527343-65.144531 27.707031-104.601562 20.5-157.449219zm0 0"/><path d="m50.996094 36.84375c-6.558594 9.917969-12.640625 20.664062-18.078125 31.941406-1.796875 3.734375-.234375 8.214844 3.5 10.015625 3.730469 1.796875 8.214843.230469 10.011719-3.5 5.148437-10.671875 10.890624-20.828125 17.078124-30.183593 32.273438-48.8125 108.378907-35.871094 121.675782 21.65625 12.160156 52.601562 9.957031 106.867187-7.402344 156.652343-11.890625 34.105469-17.820312 69.929688-17.621094 106.488281.089844 16.089844-12.738281 29.167969-28.757812 29.167969h-65.347656c-14.917969 0-27.589844-11.644531-28.851563-26.507812-5.746094-67.738281-26.6875-100.625-20.578125-154.179688 3.871094-27.398437 10.0625-52.933593 18.394531-75.894531 1.414063-3.894531-.597656-8.195312-4.488281-9.609375-3.898438-1.414063-8.195312.597656-9.609375 4.488281-9.59375 26.429688-16.625 58.039063-19.191406 79.210938-6.546875 57.136718 14.847656 90.308594 20.527343 157.253906 1.914063 22.566406 21.152344 40.238281 43.796876 40.238281h65.347656c24.265625 0 43.890625-19.765625 43.757812-44.25-.191406-34.84375 5.457032-68.980469 16.785156-101.464843 18.285157-52.441407 20.664063-109.554688 7.855469-164.972657-15.917969-68.855469-108.644531-87.292969-148.804687-26.550781zm0 0"/></svg>